<?xml version="1.0" encoding="UTF-8" standalone="no"?>
<svg
        width="68mm"
        height="68mm"
        viewBox="0 0 68 68.000001"
        version="1.1"
        id="svg8"
        sodipodi:docname="fritz2_logo_small_grey.svg"
        inkscape:version="1.1 (ce6663b3b7, 2021-05-25)"
        xmlns:inkscape="http://www.inkscape.org/namespaces/inkscape"
        xmlns:sodipodi="http://sodipodi.sourceforge.net/DTD/sodipodi-0.dtd"
        xmlns="http://www.w3.org/2000/svg"
        xmlns:rdf="http://www.w3.org/1999/02/22-rdf-syntax-ns#"
        xmlns:cc="http://creativecommons.org/ns#"
        xmlns:dc="http://purl.org/dc/elements/1.1/">
    <sodipodi:namedview
            id="namedview71"
            pagecolor="#505050"
            bordercolor="#eeeeee"
            borderopacity="1"
            inkscape:pageshadow="0"
            inkscape:pageopacity="0"
            inkscape:pagecheckerboard="true"
            inkscape:document-units="mm"
            showgrid="false"
            inkscape:zoom="3.4774753"
            inkscape:cx="234.79678"
            inkscape:cy="125.5221"
            inkscape:window-width="1920"
            inkscape:window-height="1082"
            inkscape:window-x="1080"
            inkscape:window-y="420"
            inkscape:window-maximized="0"
            inkscape:current-layer="svg8"
            width="68mm"
            showborder="true"/>
    <defs
            id="defs2"/>
    <metadata
            id="metadata5">
        <rdf:RDF>
            <cc:Work
                    rdf:about="">
                <dc:format>image/svg+xml</dc:format>
                <dc:type
                        rdf:resource="http://purl.org/dc/dcmitype/StillImage"/>
            </cc:Work>
        </rdf:RDF>
        <rdf:RDF>
            <cc:Work
                    rdf:about="">
                <dc:title/>
            </cc:Work>
        </rdf:RDF>
    </metadata>
    <g
            transform="translate(-12.94759,-13.289701)"
            id="layer2"/>
    <g
            transform="translate(-12.94759,-13.289701)"
            id="layer1">
        <path
                d="M 46.884026,13.289708 A 33.97939,33.211013 0 0 0 12.94759,46.500877 33.97939,33.211013 0 0 0 46.927153,79.711816 33.97939,33.211013 0 0 0 80.906484,46.500877 33.97939,33.211013 0 0 0 46.927153,13.289708 a 33.97939,33.211013 0 0 0 -0.04313,0 z m 15.939212,8.268477 c 1.58206,0.0082 2.85937,1.292086 2.851222,2.865829 l -0.05889,11.403963 c -0.0082,1.573742 -1.298838,2.844131 -2.880903,2.83592 -1.582065,-0.0082 -2.859388,-1.291856 -2.851222,-2.865598 l -5.732121,-0.02968 c -1.582074,-0.0082 -2.872737,1.26241 -2.880904,2.836152 l -0.01438,2.791633 h 2.645561 a 2.8539142,2.912251 0 0 1 0.200328,-0.0072 2.8539142,2.912251 0 0 1 2.854009,2.912201 2.8539142,2.912251 0 0 1 -2.854009,2.912204 2.8539142,2.912251 0 0 1 -0.231861,-0.0097 H 37.109599 v -0.0095 a 2.8539142,2.9044336 0 0 1 -0.135409,0.0035 2.8539142,2.9044336 0 0 1 -2.854006,-2.904551 2.8539142,2.9044336 0 0 1 2.854006,-2.90432 2.8539142,2.9044336 0 0 1 0.203808,0.0074 h 2.613331 l 0.02968,-5.701982 c 0.0326,-6.297878 5.192189,-11.377382 11.523373,-11.344606 l 8.598185,0.04452 c 0.0082,-1.573742 1.298605,-2.844344 2.88067,-2.836151 z m -23.076195,27.121975 11.46448,0.05936 -0.04429,8.552973 c -0.03261,6.297771 -5.192189,11.377359 -11.523373,11.344609 l -5.732123,-0.02966 c -0.0081,1.573742 -1.298842,2.844362 -2.880902,2.836151 -1.582069,-0.0082 -2.859389,-1.29209 -2.851223,-2.865831 l 0.05913,-11.403961 c 0.0081,-1.573742 1.298604,-2.844362 2.880669,-2.836151 1.58206,0.0082 2.85962,1.292081 2.851454,2.865827 l 2.866063,0.01485 c 1.582064,0.0082 2.872503,-1.262405 2.880669,-2.836155 z"
                style="fill:#333333;stroke-width:0.118714"
                id="path30"/>
        <g
                style="font-style:normal;font-weight:normal;font-size:10.5833px;line-height:1.25;font-family:sans-serif;fill:#333333;fill-opacity:1;stroke:none;stroke-width:0.264583"
                id="text62"/>
    </g>
    <path
            style="fill:#ffffff;stroke-width:0.287565"
            d="m 87.586274,127.49627 c -1.857184,-0.65358 -3.194115,-1.57889 -4.697987,-3.25156 -1.826093,-2.03106 -2.609589,-4.14272 -2.620229,-7.06199 -0.01342,-3.6831 1.354686,-6.42719 4.372637,-8.77043 2.286326,-1.77518 3.439304,-1.99334 10.590793,-2.00387 l 6.373922,-0.009 0.13007,-13.44366 c 0.11763,-12.156069 0.18651,-13.708132 0.71923,-16.204992 3.45834,-16.209254 14.90527,-28.602608 30.6262,-33.158356 5.16961,-1.498096 6.97988,-1.607539 26.58985,-1.607539 h 18.11499 l 0.13254,-1.379406 c 0.0729,-0.758673 0.45831,-2.090971 0.85647,-2.960662 3.446,-7.527064 13.82898,-8.400531 18.48458,-1.555014 1.89314,2.783649 1.89545,2.809737 1.8254,20.556401 -0.0347,8.780392 -0.13374,19.396942 -0.22019,23.59233 l -0.15717,7.627985 -0.94515,1.918412 c -1.64683,3.342635 -4.92677,5.573903 -8.65274,5.886277 -5.63826,0.47269 -10.65835,-3.532227 -11.46745,-9.148483 l -0.22285,-1.54688 h -12.21732 -12.21732 l -1.72539,0.805041 c -2.17774,1.016099 -4.24374,3.012648 -5.4159,5.233823 l -0.91053,1.725389 -0.0906,6.814766 -0.0906,6.814768 6.70457,0.0868 c 6.57154,0.0851 6.73695,0.10197 8.33655,0.85183 2.2863,1.07178 4.08984,2.83805 5.19771,5.09032 0.87497,1.77878 0.93451,2.09276 0.93362,4.92385 -8.6e-4,2.76902 -0.0716,3.16367 -0.83967,4.68191 -0.9984,1.97365 -3.37384,4.31205 -5.26992,5.18774 l -1.36615,0.63095 -34.79536,0.0605 c -30.85014,0.0537 -34.939505,0.01 -36.066656,-0.38687 z"
            id="path227"
            transform="scale(0.26458333)"/>
    <path
            style="fill:#ffffff;stroke-width:0.287565"
            d="m 65.919798,219.40479 c -2.974421,-0.75035 -5.981024,-3.27031 -7.291662,-6.11143 -0.814764,-1.7662 -0.826506,-1.86743 -0.908069,-7.8282 -0.04545,-3.32138 0.0278,-14.19133 0.162775,-24.15546 0.236101,-17.42971 0.267956,-18.16566 0.840161,-19.41063 2.029306,-4.41528 6.159166,-6.91135 10.792438,-6.52291 4.904756,0.4112 9.053701,4.29172 9.647269,9.02312 l 0.209441,1.66948 h 6.755665 6.755663 l 1.869172,-0.89885 c 2.491149,-1.19796 4.02423,-2.58707 5.093195,-4.61492 1.414184,-2.68274 1.520794,-3.77893 1.520794,-15.63641 v -10.91331 h 21.57297 21.57296 l -0.0582,12.72475 c -0.0805,17.59984 -0.32533,24.8554 -0.93393,27.67812 -1.80201,8.35796 -5.74105,15.73801 -11.52812,21.59871 -5.38513,5.45365 -11.21003,8.99751 -18.387,11.18662 -5.15242,1.57159 -6.22138,1.66606 -20.865614,1.84403 l -13.659335,0.166 -0.182328,1.49383 c -0.407415,3.33796 -3.250781,6.92478 -6.433429,8.11556 -1.948222,0.72892 -4.931964,0.99877 -6.544806,0.5919 z"
            id="path266"
            transform="scale(0.26458333)"/>
</svg>
